<mxfile host="app.diagrams.net" modified="2020-06-03T06:27:10.571Z" agent="5.0 (Windows NT 10.0; Win64; x64) AppleWebKit/537.36 (KHTML, like Gecko) Chrome/83.0.4103.61 Safari/537.36" etag="28BllfJQCjnmZkvtff5C" version="13.1.13" type="github">
  <diagram id="7W4V1VBSK7Ds5C2YHMYS" name="Page-1">
    <mxGraphModel dx="1422" dy="713" grid="1" gridSize="10" guides="1" tooltips="1" connect="1" arrows="1" fold="1" page="1" pageScale="1" pageWidth="2000" pageHeight="2000" math="0" shadow="0">
      <root>
        <mxCell id="0" />
        <mxCell id="1" parent="0" />
        <mxCell id="91pqYEGMmiE59b5kkgBJ-1" value="Server" style="shape=umlLifeline;perimeter=lifelinePerimeter;whiteSpace=wrap;html=1;container=1;collapsible=0;recursiveResize=0;outlineConnect=0;" parent="1" vertex="1">
          <mxGeometry x="170" y="80" width="100" height="300" as="geometry" />
        </mxCell>
        <mxCell id="FLs3rs2ld4nBZwbkTXae-1" value="" style="html=1;points=[];perimeter=orthogonalPerimeter;" vertex="1" parent="91pqYEGMmiE59b5kkgBJ-1">
          <mxGeometry x="45" y="70" width="10" height="80" as="geometry" />
        </mxCell>
        <mxCell id="91pqYEGMmiE59b5kkgBJ-2" value="MQ" style="shape=umlLifeline;perimeter=lifelinePerimeter;whiteSpace=wrap;html=1;container=1;collapsible=0;recursiveResize=0;outlineConnect=0;" parent="1" vertex="1">
          <mxGeometry x="360" y="80" width="100" height="300" as="geometry" />
        </mxCell>
        <mxCell id="FLs3rs2ld4nBZwbkTXae-2" value="" style="html=1;points=[];perimeter=orthogonalPerimeter;" vertex="1" parent="91pqYEGMmiE59b5kkgBJ-2">
          <mxGeometry x="45" y="70" width="10" height="80" as="geometry" />
        </mxCell>
        <mxCell id="91pqYEGMmiE59b5kkgBJ-3" value="CallbackService" style="shape=umlLifeline;perimeter=lifelinePerimeter;whiteSpace=wrap;html=1;container=1;collapsible=0;recursiveResize=0;outlineConnect=0;" parent="1" vertex="1">
          <mxGeometry x="560" y="80" width="100" height="300" as="geometry" />
        </mxCell>
        <mxCell id="91pqYEGMmiE59b5kkgBJ-4" value="Client" style="shape=umlLifeline;perimeter=lifelinePerimeter;whiteSpace=wrap;html=1;container=1;collapsible=0;recursiveResize=0;outlineConnect=0;" parent="1" vertex="1">
          <mxGeometry x="770" y="80" width="100" height="300" as="geometry" />
        </mxCell>
      </root>
    </mxGraphModel>
  </diagram>
</mxfile>
